<?xml version="1.0" encoding="utf-8"?>
<!-- Generator: Adobe Illustrator 17.1.0, SVG Export Plug-In . SVG Version: 6.00 Build 0)  -->
<!DOCTYPE svg PUBLIC "-//W3C//DTD SVG 1.1//EN" "http://www.w3.org/Graphics/SVG/1.1/DTD/svg11.dtd" [
	<!ENTITY ns_extend "http://ns.adobe.com/Extensibility/1.0/">
	<!ENTITY ns_ai "http://ns.adobe.com/AdobeIllustrator/10.0/">
	<!ENTITY ns_graphs "http://ns.adobe.com/Graphs/1.0/">
	<!ENTITY ns_vars "http://ns.adobe.com/Variables/1.0/">
	<!ENTITY ns_imrep "http://ns.adobe.com/ImageReplacement/1.0/">
	<!ENTITY ns_sfw "http://ns.adobe.com/SaveForWeb/1.0/">
	<!ENTITY ns_custom "http://ns.adobe.com/GenericCustomNamespace/1.0/">
	<!ENTITY ns_adobe_xpath "http://ns.adobe.com/XPath/1.0/">
]>
<svg version="1.1" id="Layer_1" xmlns:x="&ns_extend;" xmlns:i="&ns_ai;" xmlns:graph="&ns_graphs;"
	 xmlns="http://www.w3.org/2000/svg" xmlns:xlink="http://www.w3.org/1999/xlink" x="0px" y="0px" viewBox="0 0 1190.6 841.9"
	 enable-background="new 0 0 1190.6 841.9" xml:space="preserve">
<metadata>
	<sfw  xmlns="&ns_sfw;">
		<slices></slices>
		<sliceSourceBounds  width="1190.6" height="705.1" y="68.4" x="0" bottomLeftOrigin="true"></sliceSourceBounds>
		<optimizationSettings>
			<targetSettings  fileFormat="PNG24Format" targetSettingsID="0">
				<PNG24Format  transparency="true" matteColor="#FFFFFF" noMatteColor="false" interlaced="false" filtered="false">
					</PNG24Format>
			</targetSettings>
			<targetSettings  fileFormat="PNG24Format" targetSettingsID="1446063264">
				<PNG24Format  transparency="true" matteColor="#FFFFFF" noMatteColor="false" interlaced="false" filtered="false">
					</PNG24Format>
			</targetSettings>
		</optimizationSettings>
	</sfw>
</metadata>
<g>
	<g>
		<g>
			<g>
				<polygon fill="#4D4D4A" points="226.3,382.1 314.5,293.9 333.1,312.5 244.9,400.7 				"/>
			</g>
		</g>
		<g>
			<g>
				<polygon fill="#4D4D4A" points="307.6,287 251.8,274.6 71,94 26.5,138.8 207.1,319.4 219.5,375.2 				"/>
			</g>
		</g>
		<g>
			<g>
				<polygon fill="#4D4D4A" points="0,113.6 45.2,68.4 63.8,87 18.6,132.2 				"/>
			</g>
		</g>
	</g>
	<g>
		<g>
			<path fill="#D1422C" d="M750.3,494.6c7.2,19.4,14.2,38.9,21.4,58.5c2.6,7.2,2.1,14-1.8,20.6c-8.7,14.2-28.1,14.9-37.9,1.1
				c-2.3-3.3-3.8-6.9-5.6-10.5c-10.6-22.5-21.4-45.1-31.8-67.6c-2.3-5.1-5.4-8.3-11.1-9.5c-8-1.8-15.8-4.2-25.3-6.9
				c7.2,43.9,14,86.2,21.4,128.3c1,5.4,3.3,10.6,5.4,15.7c7.7,18.5,15.5,36.9,23.2,55.2h478.6L750.3,494.6z"/>
		</g>
		<g>
			<path fill="#D1422C" d="M572.3,613.1c1.3-2,2.4-4.1,3.8-6c-7.7-23.4-15.3-46.5-23.8-72.5c-4.9,9-8.8,15.5-11.9,22.5
				c-6,13.1-16,19.4-30.5,20.9c-22,2.4-43.9,6.4-65.8,9.8c-2,0.3-3.8,1.1-6,2c-0.3,6.7,2.6,15.7-7.3,17.5
				c-9.8,1.8-13.4-6.5-18.1-13.4c-12.4,0.3-25.1-0.8-30.9-14.4c-4.4-10.5-0.8-20.2,8-28.2c-13.1-24.2-26.1-48.2-39-72.2
				c-10.8-19.9-22-39-32.8-58.8c-0.3-0.7-0.8-1.3-1.3-2.1c-5.1-9.5-3.8-17,2.4-20.7c6.7-3.9,15.5-3.6,21.4,7.2
				c22.2,40.7,41.6,82.8,63.7,123.6c2.8,5.2,5.7,10.5,8.8,16.3c16.3-3.6,32.5-7,48.7-10.6c8.2-1.8,16-4.7,24.3-5.6
				c7.2-0.8,10-4.7,12.6-10.6c11.3-24.5,22.9-48.7,34.5-73c2.6-5.4,5.2-10.8,8.3-15.7c4.2-7,10.1-12.2,17.3-15.7l-216-91.4
				l-42.8,42.8l-1.3,1.3l-42.8,42.8l112.5,270.4h162.6C544.6,657.2,558.5,635.2,572.3,613.1z"/>
		</g>
	</g>
	<g>
		<g>
			<path fill="#4D4D4A" d="M750.3,494.6c-4.6-12.4-9.1-25-13.7-37.4c-2.6-7.2-7.7-12.1-14.4-15c-29.4-12.9-58.6-25.8-88-38.7
				c-13.2-5.9-26.8-6.4-40.7-1.8c-10.1,3.3-20.2,6.9-30.4,10.1c-1.6,0.5-3.1,1.1-4.6,1.8L750.3,494.6z"/>
		</g>
		<g>
			<g>
				<path fill="#4D4D4A" d="M599.1,325.9l-0.8-0.2c-10.9-2-22-3.4-33-5.1c-2.9-0.5-6-0.8-9-1.3s-5.2,0.2-8.2,2.1
					c-14.2,9.5-30,12.7-43.9,13.4c-2,26,14.5,50.6,40.7,58c29.7,8.3,60.6-9,69.1-38.7c2.6-9.5,2.8-19.1,0.7-28.1
					C610.5,327.9,606.1,327.1,599.1,325.9z"/>
			</g>
			<g>
				<path fill="#4D4D4A" d="M620.8,307.1c-0.5,0.5-0.7,0.8-1,1.1c-5.9,13.6-5.9,13.4-20.4,10.8c-14-2.4-28.1-4.4-42.1-6.4
					c-4.6-0.7-8.7,0.5-12.9,3.1c-16,10.6-36.3,13.6-55,12.1c-2-0.2-5.1-0.8-5.9-2.8c-0.8-2.6,1.6-5.1,3.4-6.2
					c11.8-7,16-16.8,11.6-29.2c-3.8-10.8-6.9-21.7-9.6-32.8c-1-3.6-1.6-9.5,0.2-10.8c2.9-2.1,8.3-2.8,12.1-1.6
					c18.6,6.2,37.1,13.2,55.5,19.8c25.1,8.8,50.3,17.3,75.4,25.8c1.3,0.5,2.8,1,4.1,1.5c4.6,1.6,9.6,3.3,8.5,9.6
					c-1.1,6.4-6.5,7-11.6,7.2C629.2,308.6,625.1,307.6,620.8,307.1z"/>
			</g>
		</g>
	</g>
	<g>
		<path fill="#D1422C" d="M66.5,773.5v-68.6h13.2v56.7h29.2v11.9H66.5z"/>
		<path fill="#D1422C" d="M175.9,773.5h-27.1l-9.1-8.7v-60.1h13.2v56.7h18.9v-56.7H185v60.1L175.9,773.5z"/>
		<path fill="#D1422C" d="M253.8,773.5h-25.6l-9.1-8.7v-51.4l9.1-8.7h25.6l9.1,8.7v3.3h-30.7v44.7h30.7v3.3L253.8,773.5z"/>
		<path fill="#D1422C" d="M322.5,745.4v28.1h-13.1l-0.2-28.1l-20.7-40.5h15.3L316,732l11.8-27.1h15L322.5,745.4z"/>
		<path fill="#D1422C" d="M407.2,747h-23v26.5H371v-68.6h36.1l9.1,8.7v25L407.2,747z M403.2,716.7h-18.9V735h18.9V716.7z"/>
		<path fill="#D1422C" d="M480.1,773.5l-5.1-16.8h-18.1l-4.6,16.8h-13.2l20.7-68.6h12.1l20.9,68.6H480.1z M465.9,724.8l-5.7,20.6
			h11.3L465.9,724.8z"/>
		<path fill="#D1422C" d="M554.2,773.5L543.3,747h-8.8v26.5h-13.2v-68.6h36.1l9.1,8.7v25l-9.1,8.5l11.4,26.5H554.2z M553.4,716.7
			h-18.9v17.8h18.9V716.7z"/>
		<path fill="#D1422C" d="M635,773.5h-30.2l-5.9-5.6v-7.2h31.4v-15.8h-22.4l-9.1-8.5v-23l9.1-8.7h30l5.9,5.6v7.2h-31.2v14.9H635
			l9.1,8.7v23.8L635,773.5z"/>
		<path fill="#D1422C" d="M714.4,773.5h-26.9l-9.1-8.7v-51.4l9.1-8.7h27.1l9.1,8.7v51.4L714.4,773.5z M710.3,716.7h-18.9v44.7h18.9
			V716.7z"/>
		<path fill="#D1422C" d="M791.5,773.5l-20.7-38.9l0.2,38.9h-13.1v-68.6h11.4l20.7,38.9v-38.9h12.9v68.6H791.5z"/>
		<path fill="#D1422C" d="M873.1,773.5h-30.2l-5.7-5.6v-7.2h31.2v-15.8H846l-9.1-8.5v-23l9.1-8.7h30.2l5.7,5.6v7.2h-31.2v14.9h22.4
			l9.1,8.7v23.8L873.1,773.5z"/>
		<path fill="#4D4D4A" d="M916.4,773.5v-68.6h13.2v56.7h29.2v11.9H916.4z"/>
		<path fill="#4D4D4A" d="M1024.8,773.5l-5.1-16.8h-18.3l-4.6,16.8h-13.2l20.7-68.6h12.1l20.9,68.6H1024.8z M1010.6,724.8l-5.7,20.6
			h11.3L1010.6,724.8z"/>
		<path fill="#4D4D4A" d="M1102.2,773.5H1066v-68.6h36.3l9.1,8.7v19.9l-5.7,5.4l5.7,5.4v20.9L1102.2,773.5z M1098.1,716.7h-18.9v16
			h18.9V716.7z M1098.1,744.6h-18.9v17h18.9V744.6z"/>
		<path fill="#4D4D4A" d="M1181.6,773.5h-30l-5.9-5.6v-7.2h31.4v-15.8h-22.5l-9.1-8.5v-23l9.1-8.7h30l5.9,5.6v7.2H1159v14.9h22.4
			l9.1,8.7v23.8L1181.6,773.5z"/>
	</g>
</g>
</svg>
